<svg width="25" height="26" viewBox="0 0 25 26" fill="none" xmlns="http://www.w3.org/2000/svg">
<path d="M4.37849 7.85269C6.32206 7.85269 7.89761 6.27706 7.89761 4.33357C7.89761 2.39001 6.32206 0.814453 4.37849 0.814453C2.43493 0.814453 0.859375 2.39001 0.859375 4.33357C0.859375 6.27706 2.43493 7.85269 4.37849 7.85269Z" fill="#009700"/>
<path d="M24.3205 4.33357C24.3205 6.27706 22.7448 7.85269 20.8013 7.85269C18.8579 7.85269 17.2822 6.27706 17.2822 4.33357C17.2822 2.39001 18.8579 0.814453 20.8013 0.814453C22.7448 0.814453 24.3205 2.39001 24.3205 4.33357Z" fill="#009700"/>
<path fill-rule="evenodd" clip-rule="evenodd" d="M3.67481 12.5449C2.17681 12.5449 0.727196 13.8029 0.898601 15.5803C1.00155 16.648 1.40474 19.0867 3.09962 21.3042C4.88858 23.6449 7.8963 25.4484 12.5899 25.4484C17.2835 25.4484 20.2911 23.6449 22.0803 21.3042C23.7751 19.0867 24.1784 16.648 24.2811 15.5803C24.4526 13.8029 23.003 12.5449 21.505 12.5449H3.67481Z" fill="#009700"/>
</svg>
