<?xml version="1.0"?>
<svg width="57" height="58" xmlns="http://www.w3.org/2000/svg" xmlns:svg="http://www.w3.org/2000/svg">

 <g class="layer">
  <title>Layer 1</title>
  <path d="m19.7,23.87c1.94,0 3.52,-1.57 3.52,-3.52c0,-1.94 -1.58,-3.52 -3.52,-3.52c-1.95,0 -3.52,1.58 -3.52,3.52c0,1.95 1.57,3.52 3.52,3.52z" fill="#009700" id="svg_1"/>
  <path d="m39.64,20.35c0,1.95 -1.58,3.52 -3.52,3.52c-1.94,0 -3.52,-1.57 -3.52,-3.52c0,-1.94 1.58,-3.52 3.52,-3.52c1.94,0 3.52,1.58 3.52,3.52z" fill="#009700" id="svg_2"/>
  <path clip-rule="evenodd" d="m18.99,28.56c-1.49,0 -2.94,1.26 -2.77,3.04c0.1,1.07 0.5,3.51 2.2,5.72c1.79,2.34 4.8,4.15 9.49,4.15c4.69,0 7.7,-1.81 9.49,-4.15c1.7,-2.21 2.1,-4.65 2.2,-5.72c0.17,-1.78 -1.28,-3.04 -2.78,-3.04l-17.83,0z" fill="#009700" fill-rule="evenodd" id="svg_3"/>
 </g>
</svg>