<svg width="57" height="58" viewBox="0 0 57 58" fill="none" xmlns="http://www.w3.org/2000/svg">
<path d="M20.4967 26.6706C22.4402 26.6706 24.0158 25.0949 24.0158 23.1514C24.0158 21.2079 22.4402 19.6323 20.4967 19.6323C18.5531 19.6323 16.9775 21.2079 16.9775 23.1514C16.9775 25.0949 18.5531 26.6706 20.4967 26.6706Z" fill="#59E26D"/>
<path d="M40.4386 23.1514C40.4386 25.0949 38.863 26.6706 36.9195 26.6706C34.976 26.6706 33.4004 25.0949 33.4004 23.1514C33.4004 21.2079 34.976 19.6323 36.9195 19.6323C38.863 19.6323 40.4386 21.2079 40.4386 23.1514Z" fill="#59E26D"/>
<path d="M21.4087 32.633C20.8209 31.494 19.4247 31.036 18.2749 31.6111C17.116 32.1905 16.6463 33.5998 17.2257 34.7586C17.4192 35.1442 17.6656 35.5058 17.9238 35.8502C18.3527 36.4222 19.0001 37.1586 19.9114 37.8875C21.7637 39.3693 24.6194 40.7476 28.7084 40.7476C32.7974 40.7476 35.6533 39.3693 37.5055 37.8875C38.4167 37.1586 39.0642 36.4222 39.4931 35.8502C39.7523 35.5046 39.9881 35.1431 40.1899 34.7611C40.7637 33.6174 40.2863 32.1833 39.1419 31.6111C37.9921 31.036 36.5959 31.494 36.0082 32.633C35.9759 32.6914 35.5343 33.4555 34.5743 34.2236C33.4942 35.0877 31.6577 36.0555 28.7084 36.0555C25.7592 36.0555 23.9228 35.0877 22.8425 34.2236C21.8825 33.4555 21.4411 32.6914 21.4087 32.633Z" fill="#59E26D"/>
</svg>
