<svg width="57" height="57" viewBox="0 0 57 57" fill="none" xmlns="http://www.w3.org/2000/svg">
<path d="M20.3477 26.3053C22.2913 26.3053 23.8669 24.7297 23.8669 22.7862C23.8669 20.8426 22.2913 19.2671 20.3477 19.2671C18.4042 19.2671 16.8286 20.8426 16.8286 22.7862C16.8286 24.7297 18.4042 26.3053 20.3477 26.3053Z" fill="#EFFD2E"/>
<path d="M40.2897 22.7862C40.2897 24.7297 38.7141 26.3053 36.7706 26.3053C34.8271 26.3053 33.2515 24.7297 33.2515 22.7862C33.2515 20.8426 34.8271 19.2671 36.7706 19.2671C38.7141 19.2671 40.2897 20.8426 40.2897 22.7862Z" fill="#EFFD2E"/>
<path d="M38.5123 35.6196C39.7693 35.3054 40.5337 34.0318 40.2193 32.7747C39.9052 31.5177 38.6315 30.7533 37.3745 31.0677L18.6057 35.7599C17.3487 36.074 16.5845 37.3477 16.8987 38.6047C17.213 39.8618 18.4867 40.6261 19.7438 40.3117L38.5123 35.6196Z" fill="#EFFD2E"/>
</svg>
