<svg width="57" height="58" viewBox="0 0 57 58" fill="none" xmlns="http://www.w3.org/2000/svg">
<path d="M23.8976 23.1514C23.8976 25.0949 22.3221 26.6706 20.3785 26.6706C18.4349 26.6706 16.8594 25.0949 16.8594 23.1514C16.8594 21.2079 18.4349 19.6323 20.3785 19.6323C22.3221 19.6323 23.8976 21.2079 23.8976 23.1514Z" fill="#7E0002"/>
<path d="M36.8013 26.6706C38.7448 26.6706 40.3205 25.0949 40.3205 23.1514C40.3205 21.2079 38.7448 19.6323 36.8013 19.6323C34.8579 19.6323 33.2822 21.2079 33.2822 23.1514C33.2822 25.0949 34.8579 26.6706 36.8013 26.6706Z" fill="#7E0002"/>
<path d="M34.2996 36.5212C32.9799 36.0813 31.0688 36.055 28.5897 36.055C27.294 36.055 26.2437 35.0047 26.2437 33.7089C26.2437 32.4132 27.294 31.3629 28.5897 31.3629H28.8117C30.9867 31.3619 33.6568 31.361 35.7833 32.0697C36.9502 32.4587 38.1371 33.1137 39.0195 34.2481C39.9175 35.4028 40.3201 36.8224 40.3201 38.4011C40.3201 39.6968 39.2698 40.7472 37.9741 40.7472C36.6783 40.7472 35.628 39.6968 35.628 38.4011C35.628 37.6337 35.444 37.2937 35.3157 37.1288C35.1717 36.9435 34.8922 36.7187 34.2996 36.5212Z" fill="#7E0002"/>
<path d="M20.3785 29.0166C19.2055 29.0166 16.8594 33.7088 16.8594 34.8818C16.8594 36.0548 18.0324 38.4009 20.3785 38.4009C22.7246 38.4009 23.8976 36.0548 23.8976 34.8818C23.8976 33.7088 21.5515 29.0166 20.3785 29.0166Z" fill="#7E0002"/>
</svg>
